<svg width="24" height="24" viewBox="0 0 24 24" fill="none" xmlns="http://www.w3.org/2000/svg">
<path d="M23.146 5.39999L20.354 2.59999C20.2602 2.50595 20.1328 2.45309 20 2.45309C19.8672 2.45309 19.7398 2.50595 19.646 2.59999L7.854 14.4C7.7602 14.494 7.63283 14.5469 7.5 14.5469C7.36718 14.5469 7.23981 14.494 7.146 14.4L4.354 11.6C4.2602 11.5059 4.13283 11.4531 4 11.4531C3.86718 11.4531 3.73981 11.5059 3.646 11.6L0.854004 14.4C0.658813 14.5952 0.658813 14.9117 0.854004 15.107L7.146 21.4C7.23981 21.494 7.36718 21.5469 7.5 21.5469C7.63283 21.5469 7.7602 21.494 7.854 21.4L23.146 6.09999C23.3366 5.90557 23.3366 5.59441 23.146 5.39999Z" fill="black"/>
</svg>
